<svg xmlns="http://www.w3.org/2000/svg" viewBox="0 0 64 64" width="64" height="64" role="img" aria-label="Star on film frame favicon">
  <defs>
    <linearGradient id="bg" x1="0" y1="0" x2="1" y2="1">
      <stop offset="0%" stop-color="#4F2AE8"/>
      <stop offset="55%" stop-color="#8A2FB6"/>
      <stop offset="100%" stop-color="#FF8A1A"/>
    </linearGradient>

    <linearGradient id="star" x1="0" y1="1" x2="1" y2="0">
      <stop offset="0%" stop-color="#FFB300"/>
      <stop offset="100%" stop-color="#FFE066"/>
    </linearGradient>
  </defs>

  <rect x="2" y="2" width="60" height="60" rx="14" fill="url(#bg)"/>

  <g>
    <rect x="12" y="14" width="40" height="36" rx="6" fill="#0E1320" opacity="0.92"/>
    <rect x="18" y="20" width="28" height="24" rx="4" fill="#141C2F" opacity="0.9"/>

    <g fill="#F9FAFB" opacity="0.9">
      <rect x="14.5" y="19" width="2.8" height="4.2" rx="1.2"/>
      <rect x="14.5" y="28.5" width="2.8" height="4.2" rx="1.2"/>
      <rect x="14.5" y="38" width="2.8" height="4.2" rx="1.2"/>
      <rect x="46.7" y="19" width="2.8" height="4.2" rx="1.2"/>
      <rect x="46.7" y="28.5" width="2.8" height="4.2" rx="1.2"/>
      <rect x="46.7" y="38" width="2.8" height="4.2" rx="1.2"/>
    </g>
  </g>

  <path
    d="M32 18.5 L35.8 27.1 L45.2 27.9 L38 33.9 L40.3 42.9 L32 38 L23.7 42.9 L26 33.9 L18.8 27.9 L28.2 27.1 Z"
    fill="url(#star)"
  />
</svg>
